<svg width="30" height="30" viewBox="0 0 30 30" fill="none" xmlns="http://www.w3.org/2000/svg">
<path d="M26.0844 22.0409C25.3608 21.447 24.5699 20.8062 23.8107 20.1909C23.0481 19.5731 22.0814 19.264 21.1018 19.3248C20.1222 19.3856 19.2012 19.8119 18.5209 20.5194C18.3943 20.6624 18.2398 20.778 18.067 20.8593C17.8942 20.9406 17.7066 20.9857 17.5157 20.992C17.3248 20.9983 17.1347 20.9656 16.9568 20.8959C16.779 20.8262 16.6173 20.721 16.4816 20.5866L9.85417 13.9595C9.72005 13.8237 9.61502 13.6619 9.54547 13.4842C9.47592 13.3064 9.44331 13.1163 9.44964 12.9255C9.45596 12.7347 9.50108 12.5472 9.58225 12.3744C9.66342 12.2016 9.77893 12.0472 9.92175 11.9205C10.6295 11.2402 11.0559 10.319 11.1166 9.33922C11.1774 8.35944 10.8679 7.39259 10.2496 6.63013C9.65627 5.8974 9.00368 5.09258 8.40019 4.35718C8.09617 3.99124 7.71538 3.69664 7.28482 3.49425C6.85426 3.29187 6.38446 3.18664 5.9087 3.18604C5.43295 3.18543 4.96288 3.28946 4.5318 3.49075C4.10073 3.69204 3.7192 3.98567 3.41424 4.35083C0.311635 7.55403 -0.581713 13.0804 2.74966 16.2507C4.36396 18.4286 6.12055 20.4975 8.00793 22.4436C9.95393 24.324 12.0192 26.0771 14.1907 27.6918C15.3116 28.8551 16.8084 29.5837 18.4154 29.7484C19.6638 29.8821 20.9264 29.7607 22.1265 29.3918C23.3267 29.0228 24.4394 28.4139 25.3971 27.602L26.0879 27.029C26.4535 26.7242 26.7476 26.3427 26.9493 25.9115C27.1509 25.4804 27.2553 25.0101 27.255 24.5341C27.2547 24.0581 27.1496 23.588 26.9473 23.1572C26.745 22.7263 26.4505 22.3452 26.0844 22.0409ZM25.3918 26.1852C22.5838 28.9154 17.7515 29.8517 14.9512 26.9045C12.7913 25.2852 10.731 23.5373 8.7813 21.6702C6.92239 19.7547 5.19393 17.7169 3.60756 15.5702C0.883945 13.0467 1.30041 8.55924 3.68049 5.74253L4.25804 5.04663C4.45825 4.80299 4.71003 4.60681 4.99523 4.47225C5.28043 4.33769 5.59194 4.26811 5.90729 4.26851C6.22264 4.26892 6.53397 4.33931 6.81882 4.47461C7.10367 4.60991 7.35494 4.80674 7.55451 5.05091C8.15667 5.7847 8.80768 6.58739 9.39888 7.31744C9.84476 7.86826 10.0675 8.56642 10.0231 9.27369C9.97873 9.98096 9.67036 10.6458 9.15909 11.1365L9.10862 11.1867C8.87287 11.4171 8.68504 11.6919 8.55595 11.9952C8.42687 12.2985 8.35908 12.6244 8.3565 12.954C8.35393 13.2836 8.4166 13.6105 8.54093 13.9158C8.66525 14.2211 8.84876 14.4988 9.08088 14.7328L15.708 21.36C15.9415 21.5931 16.219 21.7775 16.5244 21.9025C16.8298 22.0274 17.1569 22.0905 17.4869 22.088C17.8168 22.0854 18.143 22.0173 18.4464 21.8877C18.7498 21.7581 19.0245 21.5694 19.2544 21.3327L19.3048 21.282C19.8021 20.7673 20.4755 20.4595 21.1901 20.4202C21.9048 20.3808 22.6079 20.613 23.1586 21.07C23.8796 21.6548 24.6687 22.2941 25.3907 22.8869C25.6329 23.088 25.8279 23.34 25.9617 23.625C26.0955 23.91 26.165 24.2209 26.1651 24.5358C26.1652 24.8506 26.0959 25.1616 25.9623 25.4467C25.8286 25.7318 25.6339 25.9839 25.3918 26.1852Z" fill="white"/>
<path d="M27.0965 0.583527H17.0284C16.3203 0.584414 15.6414 0.866162 15.1407 1.36696C14.64 1.86776 14.3584 2.54672 14.3576 3.25489V8.4518C14.3583 9.0045 14.5301 9.54343 14.8494 9.99458C15.1687 10.4457 15.6198 10.787 16.1408 10.9715C16.1609 10.9778 16.1794 10.988 16.1955 11.0015C16.2116 11.0151 16.2248 11.0317 16.2344 11.0503C16.244 11.069 16.2498 11.0894 16.2515 11.1103C16.2532 11.1313 16.2507 11.1523 16.2442 11.1723L15.3929 13.6402C15.3587 13.7452 15.3569 13.858 15.3876 13.964C15.4184 14.0701 15.4803 14.1644 15.5653 14.2348C15.6504 14.3052 15.7546 14.3485 15.8645 14.3589C15.9744 14.3693 16.0849 14.3465 16.1817 14.2933L20.9068 11.5878C21.4393 11.2832 22.0421 11.1229 22.6555 11.1226H27.0965C27.8046 11.1219 28.4835 10.8402 28.9842 10.3395C29.4849 9.8388 29.7665 9.15991 29.7673 8.4518V3.25489C29.7666 2.54672 29.4849 1.86776 28.9842 1.36696C28.4835 0.866162 27.8046 0.584414 27.0965 0.583527ZM28.6736 8.4518C28.6731 8.86992 28.5068 9.27077 28.2111 9.56643C27.9155 9.86208 27.5146 10.0284 27.0965 10.0289H22.6555C21.8515 10.0294 21.0615 10.2394 20.3634 10.6382L16.9016 12.6207L17.2781 11.529C17.3842 11.2157 17.3625 10.8731 17.2177 10.5756C17.073 10.2781 16.8168 10.0496 16.5048 9.93968C16.197 9.83085 15.9305 9.62938 15.7419 9.36296C15.5533 9.09654 15.4518 8.77824 15.4514 8.4518V3.25489C15.4517 2.83668 15.618 2.43571 15.9136 2.13994C16.2093 1.84418 16.6102 1.67779 17.0284 1.67728H27.0965C27.5147 1.67779 27.9156 1.84418 28.2113 2.13994C28.5069 2.43571 28.6732 2.83668 28.6736 3.25489V8.4518Z" fill="white"/>
<path d="M26.0898 3.72328H18.0351C17.8914 3.72532 17.7543 3.78383 17.6534 3.88617C17.5525 3.98851 17.4959 4.12646 17.4959 4.27017C17.4959 4.41389 17.5525 4.55183 17.6534 4.65416C17.7543 4.7565 17.8915 4.815 18.0352 4.81703H26.0898C26.2334 4.8149 26.3705 4.75635 26.4713 4.65402C26.5721 4.55169 26.6286 4.41381 26.6286 4.27016C26.6286 4.12651 26.5721 3.98862 26.4713 3.8863C26.3705 3.78397 26.2334 3.72541 26.0898 3.72328Z" fill="white"/>
<path d="M26.0898 6.88969H18.0351C17.8915 6.89182 17.7545 6.95038 17.6536 7.05271C17.5528 7.15504 17.4963 7.29293 17.4963 7.43658C17.4963 7.58023 17.5528 7.71811 17.6537 7.82044C17.7545 7.92276 17.8915 7.98131 18.0352 7.98344H26.0898C26.2334 7.98131 26.3705 7.92276 26.4713 7.82043C26.5721 7.7181 26.6286 7.58022 26.6286 7.43656C26.6286 7.29291 26.5721 7.15503 26.4713 7.0527C26.3705 6.95038 26.2334 6.89182 26.0898 6.88969Z" fill="white"/>
</svg>
