<svg width="35" height="35" viewBox="0 0 35 35" fill="none" xmlns="http://www.w3.org/2000/svg">
<path d="M4.37484 30.0271L9.61025 24.7917H26.2498C27.0234 24.7917 27.7653 24.4844 28.3122 23.9374C28.8592 23.3904 29.1665 22.6485 29.1665 21.875V8.75C29.1665 7.97645 28.8592 7.23459 28.3122 6.68761C27.7653 6.14062 27.0234 5.83333 26.2498 5.83333H7.2915C6.51796 5.83333 5.77609 6.14062 5.22911 6.68761C4.68213 7.23459 4.37484 7.97645 4.37484 8.75V30.0271ZM4.37484 32.0833H2.9165V8.75C2.9165 7.58968 3.37744 6.47688 4.19791 5.65641C5.01838 4.83594 6.13118 4.375 7.2915 4.375H26.2498C27.4102 4.375 28.523 4.83594 29.3434 5.65641C30.1639 6.47688 30.6248 7.58968 30.6248 8.75V21.875C30.6248 23.0353 30.1639 24.1481 29.3434 24.9686C28.523 25.7891 27.4102 26.25 26.2498 26.25H10.2082L4.37484 32.0833ZM8.74984 10.2083H24.7915V11.6667H8.74984V10.2083ZM8.74984 14.5833H24.7915V16.0417H8.74984V14.5833ZM8.74984 18.9583H20.4165V20.4167H8.74984V18.9583Z" fill="white"/>
</svg>
