<svg width="143" height="143" viewBox="0 0 143 143" fill="none" xmlns="http://www.w3.org/2000/svg">
<path d="M63.2167 82.225L50.4958 69.4146C49.4111 68.3222 48.0306 67.7761 46.3542 67.7761C44.6778 67.7761 43.2972 68.3222 42.2125 69.4146C41.1278 70.507 40.5854 71.8972 40.5854 73.5854C40.5854 75.2736 41.1278 76.6639 42.2125 77.7563L59.075 94.7375C60.2583 95.9292 61.6389 96.525 63.2167 96.525C64.7945 96.525 66.175 95.9292 67.3583 94.7375L100.788 61.0729C101.872 59.9806 102.415 58.5903 102.415 56.9021C102.415 55.2139 101.872 53.8236 100.788 52.7313C99.7028 51.6389 98.3222 51.0927 96.6458 51.0927C94.9695 51.0927 93.5889 51.6389 92.5042 52.7313L63.2167 82.225ZM71.5 131.083C63.3153 131.083 55.6236 129.518 48.425 126.388C41.2264 123.258 34.9646 119.014 29.6396 113.655C24.3146 108.293 20.1 101.987 16.9957 94.7375C13.8914 87.4882 12.3373 79.7424 12.3333 71.5C12.3333 63.2577 13.8875 55.5118 16.9957 48.2625C20.1039 41.0132 24.3185 34.7073 29.6396 29.3448C34.9646 23.9823 41.2264 19.738 48.425 16.6119C55.6236 13.4857 63.3153 11.9207 71.5 11.9167C79.6847 11.9167 87.3764 13.4817 94.575 16.6119C101.774 19.742 108.035 23.9863 113.36 29.3448C118.685 34.7073 122.902 41.0132 126.01 48.2625C129.118 55.5118 130.671 63.2577 130.667 71.5C130.667 79.7424 129.113 87.4882 126.004 94.7375C122.896 101.987 118.681 108.293 113.36 113.655C108.035 119.018 101.774 123.264 94.575 126.394C87.3764 129.524 79.6847 131.087 71.5 131.083Z" fill="#545454"/>
</svg>
