<?xml version="1.0" encoding="UTF-8"?><svg id="_レイヤー_2" xmlns="http://www.w3.org/2000/svg" viewBox="0 0 218.48 237.02"><g id="illustration"><path d="m104.83,212.42H12.24c-3.2,0-5.79-2.59-5.79-5.79V12.24c0-3.2,2.59-5.79,5.79-5.79h163.28c3.2,0,5.79,2.59,5.79,5.79v99.64" style="fill:none; stroke:#000; stroke-linecap:round; stroke-linejoin:round; stroke-width:12.91px;"/><line x1="49.81" y1="55.33" x2="137.95" y2="55.33" style="fill:none; stroke:#000; stroke-linecap:round; stroke-linejoin:round; stroke-width:12.91px;"/><line x1="49.81" y1="91.4" x2="137.95" y2="91.4" style="fill:none; stroke:#000; stroke-linecap:round; stroke-linejoin:round; stroke-width:12.91px;"/><line x1="49.81" y1="127.47" x2="123.54" y2="127.47" style="fill:none; stroke:#000; stroke-linecap:round; stroke-linejoin:round; stroke-width:12.91px;"/><line x1="49.81" y1="163.55" x2="100.85" y2="163.55" style="fill:none; stroke:#000; stroke-linecap:round; stroke-linejoin:round; stroke-width:12.91px;"/><path d="m210.94,150.87l-49.86,64.77-22.71,14.24c-3.44,2.16-7.72-1.13-6.51-5.01l7.96-25.59,49.86-64.77c1.77-2.3,5.07-2.73,7.37-.96l12.93,9.95c2.3,1.77,2.73,5.07.96,7.37Z" style="fill:none; stroke:#000; stroke-linecap:round; stroke-linejoin:round; stroke-width:12.91px;"/></g></svg>